# xmcd CD database file generated by Grip 2.6
# 
# Track frame offsets:
#       182
#       30275
#       43450
#       64950
#       75825
#       88800
#       112200
#       123000
#       136000
#       160200
#       170812
#       186550
#       195825
#       213262
#       229025
#       237650
#       271200
#       298650
#       311100
#       324750
# 
# Disc length: 4534 seconds
# 
# Revision: 3
# Processed by: cddbd v1.4b41PL1 Copyright (c) Steve Scherf et al.
# Submitted via: Grip 2.6
# 
DISCID=1c11b414
DTITLE=Tom Waits - Downtown Blues
DYEAR=1900
DGENRE=
TTITLE0=I Hope That I Don't Fall In Love for You
TTITLE1=San Diego Serenade
TTITLE2=Good Night Loving Trail
TTITLE3=Diamonds on My Windsheild
TTITLE4=Ice Cream Man
TTITLE5=Please Call Me Baby
TTITLE6=Better off Without a Wife
TTITLE7=The Ghost of Saturday Night
TTITLE8=Big Joe and Phantom 309
TTITLE9=Truck Driving Man
TTITLE10=01'  "55
TTITLE11=On a Foggy Night
TTITLE12=Martha
TTITLE13=Eggs and Sausages
TTITLE14=New Coat of Paint
TTITLE15=Night Hawk Postcards
TTITLE16=Looking for the Heart of Saturday Night
TTITLE17=Ice Cream Man (2)
TTITLE18=San Diego Serenade (2)
TTITLE19=01'  "55 (2)
EXTD=1992 Big Music, Italy\nSpellings are as on CD track listing
EXTT0=
EXTT1=
EXTT2=
EXTT3=
EXTT4=
EXTT5=
EXTT6=
EXTT7=
EXTT8=
EXTT9=
EXTT10=
EXTT11=
EXTT12=
EXTT13=
EXTT14=
EXTT15=
EXTT16=
EXTT17=
EXTT18=
EXTT19=
PLAYORDER=
